<svg width="36" height="36" viewBox="0 0 36 36" fill="none" xmlns="http://www.w3.org/2000/svg">
<g clip-path="url(#clip0_1_334)">
<path d="M27.9196 0H8.08036C3.6177 0 0 3.6177 0 8.08036V27.9196C0 32.3823 3.6177 36 8.08036 36H27.9196C32.3823 36 36 32.3823 36 27.9196V8.08036C36 3.6177 32.3823 0 27.9196 0Z" fill="url(#paint0_linear_1_334)"/>
<path d="M14.7635 11.0769H21.3893C21.5366 11.1505 21.7574 11.1505 21.9047 11.2241C22.5508 11.3288 23.1549 11.6116 23.6491 12.0408C24.1433 12.4699 24.508 13.0283 24.7022 13.6533C24.8109 14.0135 24.8849 14.3832 24.9231 14.7575V21.2353C24.8178 22.0562 24.5146 22.8394 24.0396 23.5172C23.6321 23.9893 23.1212 24.3611 22.5466 24.6036C21.9721 24.8462 21.3493 24.953 20.7267 24.9158H15.2053C14.2199 24.9636 13.2511 24.6495 12.4813 24.0325C12.0133 23.6281 11.6439 23.1221 11.4014 22.553C11.159 21.984 11.0499 21.3671 11.0826 20.7494V15.5966C11.0704 15.2271 11.0951 14.8572 11.1562 14.4925C11.2305 13.7378 11.5408 13.0257 12.0431 12.4575C12.5453 11.8893 13.2138 11.4938 13.9537 11.3272L14.7635 11.0769ZM12.4813 18.07V20.9408C12.4499 21.3064 12.4989 21.6744 12.6246 22.0191C12.7504 22.3638 12.9501 22.6768 13.2095 22.9363C13.469 23.1958 13.7821 23.3954 14.1268 23.5211C14.4716 23.6469 14.8396 23.6958 15.2053 23.6644C17.1194 23.738 19.0335 23.738 20.9476 23.6644C22.6408 23.6644 23.5979 22.6339 23.6715 20.9408C23.7451 19.0269 23.7451 17.113 23.6715 15.1991C23.6906 14.8364 23.6332 14.4738 23.5031 14.1347C23.3729 13.7956 23.1729 13.4877 22.9161 13.2309C22.6592 12.974 22.3513 12.7741 22.0121 12.644C21.673 12.5138 21.3103 12.4564 20.9476 12.4755C19.0335 12.4019 17.1194 12.4019 15.2053 12.4755C14.8396 12.4441 14.4716 12.493 14.1268 12.6188C13.7821 12.7446 13.469 12.9442 13.2095 13.2037C12.9501 13.4631 12.7504 13.7761 12.6246 14.1208C12.4989 14.4655 12.4499 14.8336 12.4813 15.1991V18.07Z" fill="white"/>
<path d="M14.4985 18.0994C14.5005 17.1434 14.8812 16.227 15.5573 15.551C16.2333 14.875 17.1498 14.4944 18.1059 14.4924C19.0567 14.5113 19.9634 14.8973 20.6359 15.5697C21.3083 16.2421 21.6944 17.1487 21.7133 18.0994C21.7113 19.0554 21.3306 19.9717 20.6545 20.6477C19.9785 21.3238 19.062 21.7044 18.1059 21.7063C17.1551 21.6875 16.2484 21.3014 15.5759 20.629C14.9035 19.9567 14.5174 19.0501 14.4985 18.0994ZM18.1059 15.8174C17.6588 15.8102 17.2196 15.9366 16.8448 16.1804C16.4699 16.4243 16.1765 16.7746 16.002 17.1863C15.8275 17.598 15.7799 18.0524 15.8654 18.4913C15.9508 18.9302 16.1654 19.3337 16.4816 19.6498C16.7979 19.966 17.2013 20.1806 17.6403 20.2661C18.0793 20.3515 18.5337 20.3039 18.9455 20.1295C19.3573 19.955 19.7075 19.6616 19.9514 19.2868C20.1953 18.912 20.3218 18.4729 20.3145 18.0258C20.3145 17.4401 20.0818 16.8784 19.6676 16.4642C19.2534 16.0501 18.6917 15.8174 18.1059 15.8174Z" fill="white"/>
<path d="M20.9034 14.3453C20.8992 14.2282 20.9193 14.1115 20.9622 14.0024C21.0052 13.8934 21.0701 13.7944 21.153 13.7115C21.2358 13.6287 21.3349 13.5637 21.4439 13.5208C21.553 13.4779 21.6697 13.4578 21.7868 13.462C22.016 13.4775 22.2318 13.5755 22.3942 13.7379C22.5567 13.9003 22.6547 14.1161 22.6702 14.3453C22.6702 14.5796 22.5772 14.8042 22.4115 14.9699C22.2458 15.1356 22.0211 15.2286 21.7868 15.2286C21.5525 15.2286 21.3278 15.1356 21.1621 14.9699C20.9964 14.8042 20.9034 14.5796 20.9034 14.3453Z" fill="white"/>
</g>
<defs>
<linearGradient id="paint0_linear_1_334" x1="-2.29442" y1="37.9952" x2="40.1025" y2="-3.77832" gradientUnits="userSpaceOnUse">
<stop stop-color="#FED576"/>
<stop offset="0.26" stop-color="#F47133"/>
<stop offset="0.61" stop-color="#BC3081"/>
<stop offset="1" stop-color="#4C63D2"/>
</linearGradient>
<clipPath id="clip0_1_334">
<rect width="36" height="36" rx="18" fill="white"/>
</clipPath>
</defs>
</svg>
