<svg width="200" height="45" viewBox="0 0 200 45" fill="none" xmlns="http://www.w3.org/2000/svg">
<g clip-path="url(#clip0_1_358)">
<path d="M22.9297 44.9634C35.5911 44.9634 45.8552 34.898 45.8552 22.4817C45.8552 10.0654 35.5911 0 22.9297 0C10.2683 0 0.00427246 10.0654 0.00427246 22.4817C0.00427246 34.898 10.2683 44.9634 22.9297 44.9634Z" fill="#4399EB"/>
<path d="M70.0851 13.0503V32.242H67.1029L56.2925 19.2648V32.242H52.6766V13.0503H55.6588L66.4319 26.0275V13.0503H70.0851Z" fill="white"/>
<path d="M74.8938 14.6224C74.4465 14.2203 74.2601 13.745 74.2601 13.1602C74.2601 12.5753 74.4838 12.1 74.8938 11.6979C75.3039 11.2958 75.863 11.113 76.4968 11.113C77.1305 11.113 77.6524 11.2958 78.0997 11.6614C78.5097 12.0269 78.7334 12.5022 78.7334 13.087C78.7334 13.6719 78.5097 14.1837 78.0997 14.6224C77.6896 15.061 77.1305 15.2438 76.4968 15.2438C75.8258 15.2073 75.3039 14.9879 74.8938 14.6224ZM74.7075 17.6199H78.2115V32.2422H74.7075V17.6199Z" fill="white"/>
<path d="M86.3752 16.8522V17.7295H90.4757V20.4712H86.487V32.2786H82.983V20.4712H80.5227V17.7295H82.983V16.8156C82.983 15.2437 83.4303 14.0008 84.3995 13.0869C85.3315 12.173 86.6362 11.7344 88.3509 11.7344C89.6929 11.7344 90.7366 11.9903 91.5195 12.5386L90.5503 15.0975C89.9538 14.6954 89.3201 14.5126 88.6118 14.5126C87.1208 14.476 86.3752 15.2803 86.3752 16.8522Z" fill="white"/>
<path d="M101.51 31.4746C101.1 31.8036 100.615 32.0595 100.019 32.2057C99.4221 32.3519 98.8257 32.4616 98.1547 32.4616C96.5145 32.4616 95.2471 32.0595 94.3524 31.2187C93.4578 30.3779 93.0105 29.1716 93.0105 27.5266V20.4713H90.5502V17.7296H93.0105V14.4031H96.5145V17.7296H100.503V20.4713H96.5145V27.4169C96.5145 28.148 96.7009 28.6598 97.0364 29.0619C97.3719 29.4274 97.8938 29.6102 98.5648 29.6102C99.3476 29.6102 99.9813 29.4274 100.503 29.0253L101.51 31.4746Z" fill="white"/>
<path d="M117.837 17.6199L110.829 33.4485C110.158 35.0569 109.375 36.1536 108.443 36.8116C107.511 37.4696 106.393 37.7986 105.051 37.7986C104.305 37.7986 103.56 37.6889 102.852 37.433C102.106 37.1771 101.547 36.8481 101.062 36.446L102.479 33.9237C102.814 34.2161 103.224 34.472 103.672 34.6548C104.119 34.8376 104.604 34.9472 105.051 34.9472C105.685 34.9472 106.169 34.801 106.579 34.472C106.989 34.143 107.362 33.6312 107.698 32.9001L107.959 32.3152L101.398 17.6199H105.051L109.748 28.4403L114.482 17.6199H117.837Z" fill="white"/>
<path d="M122.199 14.805H115.302V13.0503H131.145V14.805H124.249V32.242H122.199V14.805Z" fill="white"/>
<path d="M136.588 18.4606C137.519 17.9488 138.638 17.7295 140.017 17.7295V19.6304L139.532 19.5938C137.967 19.5938 136.774 20.0691 135.879 20.9829C134.985 21.9334 134.575 23.2128 134.575 24.8944V32.2421H132.599V17.8392H134.5V20.6539C134.947 19.7035 135.656 18.9724 136.588 18.4606Z" fill="white"/>
<path d="M152.095 19.1188C153.101 20.0692 153.623 21.4583 153.623 23.2861V32.2423H151.722V30.0124C151.275 30.78 150.604 31.3649 149.746 31.767C148.889 32.2057 147.845 32.3885 146.652 32.3885C145.012 32.3885 143.707 32.0229 142.738 31.2553C141.769 30.4876 141.284 29.464 141.284 28.2211C141.284 27.0148 141.732 26.0278 142.626 25.2601C143.521 24.529 144.975 24.1269 146.951 24.1269H151.61V23.2496C151.61 22.0067 151.237 21.0562 150.566 20.3982C149.858 19.7402 148.814 19.4112 147.472 19.4112C146.541 19.4112 145.646 19.5575 144.788 19.8499C143.931 20.1423 143.186 20.581 142.589 21.0928L141.694 19.6306C142.44 19.0091 143.335 18.5339 144.378 18.2049C145.422 17.8759 146.503 17.6931 147.659 17.6931C149.597 17.7297 151.051 18.2049 152.095 19.1188ZM149.858 30.0855C150.641 29.5737 151.275 28.8426 151.647 27.8921V25.5526H147.025C144.49 25.5526 143.26 26.4299 143.26 28.1115C143.26 28.9523 143.596 29.6103 144.229 30.0855C144.9 30.5607 145.795 30.8166 146.951 30.8166C148.106 30.8532 149.038 30.5973 149.858 30.0855Z" fill="white"/>
<path d="M171.479 11.9172V32.2422H169.578V29.3908C168.981 30.3778 168.198 31.109 167.229 31.6207C166.26 32.1325 165.142 32.3884 163.912 32.3884C162.532 32.3884 161.302 32.096 160.184 31.4745C159.066 30.8531 158.171 29.9757 157.575 28.8791C156.941 27.7824 156.643 26.5029 156.643 25.0773C156.643 23.6516 156.941 22.3722 157.575 21.2755C158.208 20.1788 159.066 19.3015 160.184 18.68C161.302 18.0586 162.532 17.7661 163.912 17.7661C165.104 17.7661 166.186 18.022 167.155 18.4973C168.124 18.9725 168.907 19.7036 169.503 20.6175V11.9172H171.479ZM166.857 29.9757C167.677 29.5005 168.348 28.8425 168.832 28.0017C169.317 27.1609 169.54 26.1739 169.54 25.0773C169.54 23.9806 169.317 22.9936 168.832 22.1528C168.348 21.312 167.714 20.6175 166.857 20.1788C166.036 19.7036 165.104 19.4843 164.061 19.4843C163.017 19.4843 162.085 19.7036 161.265 20.1788C160.445 20.654 159.774 21.312 159.289 22.1528C158.805 23.0302 158.581 23.9806 158.581 25.0773C158.581 26.1739 158.805 27.1609 159.289 28.0017C159.774 28.8791 160.408 29.5371 161.265 29.9757C162.085 30.451 163.017 30.6703 164.061 30.6703C165.104 30.6703 165.999 30.4144 166.857 29.9757Z" fill="white"/>
<path d="M189.521 25.6622H177.22C177.331 27.161 177.928 28.3673 178.972 29.2812C180.015 30.1951 181.395 30.6703 182.997 30.6703C183.892 30.6703 184.749 30.5241 185.532 30.1951C186.278 29.8661 186.949 29.3909 187.508 28.7694L188.626 30.0123C187.955 30.78 187.173 31.3649 186.166 31.767C185.197 32.1691 184.116 32.3519 182.923 32.3519C181.395 32.3519 180.09 32.0229 178.897 31.4014C177.741 30.78 176.809 29.9026 176.176 28.7694C175.505 27.6727 175.207 26.3933 175.207 24.9676C175.207 23.5785 175.505 22.2991 176.138 21.1658C176.772 20.0692 177.63 19.1918 178.711 18.5704C179.792 17.9489 181.022 17.6565 182.401 17.6565C183.743 17.6565 184.973 17.9855 186.054 18.5704C187.135 19.1918 187.993 20.0692 188.589 21.1658C189.223 22.2625 189.521 23.542 189.521 24.9676V25.6622ZM178.86 20.7272C177.89 21.6045 177.369 22.7743 177.22 24.2H187.657C187.508 22.7743 186.986 21.6045 186.017 20.7272C185.048 19.8498 183.855 19.4112 182.438 19.4112C181.022 19.4112 179.829 19.8498 178.86 20.7272Z" fill="white"/>
<path d="M196.566 18.4606C197.498 17.9488 198.617 17.7295 199.996 17.7295V19.6304L199.511 19.5938C197.946 19.5938 196.753 20.0691 195.858 20.9829C194.964 21.9334 194.553 23.2128 194.553 24.8944V32.2421H192.578V17.8392H194.479V20.6539C194.964 19.7035 195.634 18.9724 196.566 18.4606Z" fill="white"/>
<path d="M115.526 35.0934V36.263H117.427V36.8843H115.526V38.3463H114.78V34.5085H117.651V35.0934H115.526Z" fill="white"/>
<path d="M118.21 34.8009C118.135 34.7278 118.098 34.6182 118.098 34.5085C118.098 34.3988 118.135 34.2892 118.21 34.2161C118.284 34.143 118.396 34.1064 118.545 34.1064C118.694 34.1064 118.769 34.143 118.881 34.2161C118.955 34.2892 118.993 34.3988 118.993 34.5085C118.993 34.6182 118.955 34.7278 118.881 34.8009C118.806 34.874 118.694 34.9106 118.545 34.9106C118.396 34.9471 118.284 34.874 118.21 34.8009ZM118.173 35.4223H118.881V38.3463H118.173V35.4223Z" fill="white"/>
<path d="M122.348 35.7147C122.571 35.934 122.683 36.263 122.683 36.665V38.3463H121.975V36.7747C121.975 36.5188 121.9 36.3361 121.789 36.1898C121.677 36.0436 121.49 36.0071 121.267 36.0071C121.006 36.0071 120.819 36.0802 120.67 36.2264C120.521 36.3726 120.447 36.5919 120.447 36.8843V38.3463H119.738V35.4223H120.409V35.7878C120.521 35.6416 120.67 35.5319 120.857 35.4954C121.043 35.4223 121.229 35.3857 121.453 35.3857C121.789 35.3857 122.087 35.4954 122.348 35.7147Z" fill="white"/>
<path d="M126.448 34.2893V38.3464H125.777V37.9809C125.665 38.1271 125.516 38.2368 125.367 38.3099C125.181 38.383 124.994 38.4195 124.808 38.4195C124.51 38.4195 124.249 38.3464 124.025 38.2367C123.802 38.1271 123.615 37.9443 123.503 37.725C123.391 37.5057 123.317 37.2499 123.317 36.9209C123.317 36.6285 123.391 36.3727 123.503 36.1534C123.652 35.9341 123.802 35.7513 124.025 35.6417C124.249 35.532 124.51 35.4589 124.808 35.4589C124.994 35.4589 125.181 35.4955 125.367 35.5686C125.516 35.6417 125.665 35.7513 125.777 35.861V34.3624H126.448V34.2893ZM125.33 37.6885C125.479 37.6154 125.554 37.5057 125.665 37.3595C125.777 37.2133 125.777 37.0671 125.777 36.8844C125.777 36.7016 125.74 36.5554 125.665 36.4092C125.591 36.263 125.479 36.1534 125.33 36.0803C125.181 36.0072 125.032 35.9706 124.883 35.9706C124.733 35.9706 124.547 36.0072 124.435 36.0803C124.323 36.1534 124.212 36.263 124.1 36.4092C123.988 36.5554 123.988 36.7016 123.988 36.8844C123.988 37.0671 124.025 37.2133 124.1 37.3595C124.174 37.5057 124.286 37.6154 124.435 37.6885C124.584 37.7616 124.733 37.7981 124.883 37.7981C125.032 37.7981 125.218 37.7616 125.33 37.6885Z" fill="white"/>
<path d="M131.592 35.4224L130.176 38.6022C130.027 38.9312 129.878 39.1505 129.691 39.2602C129.505 39.4064 129.281 39.4429 129.02 39.4429C128.871 39.4429 128.722 39.4064 128.573 39.3698C128.424 39.3333 128.312 39.2602 128.2 39.1871L128.498 38.6753C128.573 38.7485 128.648 38.785 128.722 38.8215C128.797 38.8581 128.908 38.8947 128.983 38.8947C129.095 38.8947 129.207 38.8581 129.281 38.785C129.356 38.7119 129.43 38.6022 129.505 38.456L129.542 38.3464L128.237 35.4224H128.983L129.915 37.5788L130.847 35.4224H131.592Z" fill="white"/>
<path d="M132.413 38.2001C132.189 38.0905 131.965 37.9077 131.853 37.6519C131.742 37.396 131.667 37.1767 131.667 36.8843C131.667 36.5919 131.742 36.3361 131.853 36.1168C131.965 35.8974 132.189 35.7147 132.413 35.5685C132.673 35.4588 132.934 35.3857 133.233 35.3857C133.531 35.3857 133.829 35.4588 134.053 35.5685C134.276 35.7147 134.5 35.8609 134.612 36.1168C134.724 36.3726 134.798 36.5919 134.798 36.8843C134.798 37.1767 134.724 37.4326 134.612 37.6519C134.5 37.8712 134.276 38.0539 134.053 38.2001C133.792 38.3098 133.531 38.3829 133.233 38.3829C132.934 38.3829 132.673 38.3098 132.413 38.2001ZM133.866 37.5422C134.053 37.3595 134.127 37.1402 134.127 36.8843C134.127 36.6285 134.053 36.3726 133.866 36.2264C133.68 36.0802 133.494 35.9705 133.233 35.9705C132.972 35.9705 132.748 36.0436 132.599 36.2264C132.45 36.4092 132.338 36.6285 132.338 36.8843C132.338 37.1402 132.413 37.396 132.599 37.5422C132.748 37.725 132.972 37.7981 133.233 37.7981C133.494 37.7981 133.717 37.725 133.866 37.5422Z" fill="white"/>
<path d="M138.34 35.4224V38.3464H137.669V37.9809C137.557 38.1271 137.408 38.2002 137.258 38.2733C137.109 38.3464 136.923 38.3829 136.699 38.3829C136.289 38.3829 135.991 38.2733 135.767 38.054C135.544 37.8347 135.432 37.5057 135.432 37.1037V35.4224H136.14V36.994C136.14 37.2499 136.215 37.4692 136.327 37.5788C136.438 37.725 136.625 37.7616 136.848 37.7616C137.109 37.7616 137.296 37.6885 137.445 37.5423C137.594 37.3961 137.669 37.1768 137.669 36.8844V35.4224H138.34Z" fill="white"/>
<path d="M140.912 35.3857V36.0436C140.837 36.0436 140.8 36.0436 140.763 36.0436C140.502 36.0436 140.278 36.1167 140.129 36.2629C139.98 36.4092 139.905 36.6285 139.905 36.9209V38.3463H139.197V35.4223H139.868V35.8243C140.054 35.5319 140.427 35.3857 140.912 35.3857Z" fill="white"/>
<path d="M141.695 38.2732C141.471 38.2001 141.284 38.127 141.135 38.0539L141.396 37.5422C141.545 37.6153 141.695 37.6884 141.881 37.7615C142.067 37.7981 142.254 37.8346 142.44 37.8346C142.85 37.8346 143.074 37.725 143.074 37.5057C143.074 37.396 143.037 37.3229 142.925 37.2864C142.813 37.2498 142.664 37.2133 142.403 37.1767C142.142 37.1402 141.955 37.1036 141.806 37.0671C141.657 37.0305 141.508 36.9209 141.396 36.8112C141.284 36.7016 141.21 36.5188 141.21 36.2995C141.21 36.0071 141.322 35.7878 141.583 35.6416C141.806 35.4588 142.142 35.3857 142.552 35.3857C142.738 35.3857 142.962 35.4223 143.186 35.4588C143.372 35.4954 143.558 35.5685 143.67 35.6416L143.409 36.1533C143.148 36.0071 142.887 35.934 142.552 35.934C142.328 35.934 142.179 35.9705 142.067 36.0071C141.955 36.0436 141.918 36.1533 141.918 36.2629C141.918 36.3726 141.993 36.4457 142.105 36.4823C142.216 36.5188 142.403 36.5554 142.626 36.6285C142.85 36.665 143.074 36.7016 143.223 36.7381C143.372 36.7747 143.521 36.8478 143.633 36.994C143.745 37.1036 143.782 37.2864 143.782 37.4691C143.782 37.7615 143.67 37.9808 143.409 38.127C143.148 38.3098 142.85 38.3829 142.403 38.3829C142.142 38.3829 141.918 38.3463 141.695 38.2732Z" fill="white"/>
<path d="M147.1 37.1036H144.751C144.789 37.3229 144.9 37.5057 145.087 37.6153C145.273 37.725 145.46 37.7981 145.72 37.7981C146.056 37.7981 146.317 37.6884 146.541 37.4691L146.913 37.9077C146.764 38.0539 146.615 38.2001 146.391 38.2732C146.168 38.3463 145.944 38.3829 145.683 38.3829C145.348 38.3829 145.049 38.3098 144.826 38.2001C144.602 38.0905 144.378 37.9077 144.229 37.6519C144.08 37.396 144.043 37.1767 144.043 36.8843C144.043 36.5919 144.118 36.3361 144.229 36.1168C144.378 35.8974 144.528 35.7147 144.789 35.5685C145.012 35.4588 145.273 35.3857 145.571 35.3857C145.87 35.3857 146.13 35.4588 146.354 35.5685C146.578 35.6781 146.764 35.8609 146.876 36.1168C146.988 36.3361 147.062 36.5919 147.062 36.9209C147.1 36.9574 147.1 36.994 147.1 37.1036ZM145.012 36.1168C144.863 36.263 144.751 36.4092 144.714 36.6285H146.391C146.354 36.4092 146.28 36.263 146.13 36.1168C145.981 35.9705 145.795 35.934 145.571 35.934C145.385 35.934 145.199 36.0071 145.012 36.1168Z" fill="white"/>
<path d="M147.733 34.2893H148.442V38.3464H147.733V34.2893Z" fill="white"/>
<path d="M150.045 35.2762V35.4589H150.865V36.0072H150.082V38.383H149.374V36.0072H148.889V35.4589H149.374V35.2762C149.374 34.9472 149.448 34.7279 149.672 34.5452C149.858 34.3624 150.119 34.2893 150.455 34.2893C150.716 34.2893 150.939 34.3259 151.088 34.4355L150.902 34.9472C150.79 34.8741 150.641 34.8376 150.529 34.8376C150.194 34.801 150.045 34.9472 150.045 35.2762Z" fill="white"/>
<path d="M155.785 38.3827L155.301 37.9076C154.928 38.2 154.481 38.3827 153.996 38.3827C153.735 38.3827 153.474 38.3462 153.25 38.2365C153.027 38.1269 152.878 38.0172 152.728 37.871C152.617 37.7248 152.542 37.5421 152.542 37.3593C152.542 37.14 152.617 36.9207 152.766 36.738C152.915 36.5552 153.139 36.3725 153.474 36.1897C153.325 36.0435 153.213 35.8973 153.139 35.7511C153.064 35.6049 153.027 35.4953 153.027 35.3491C153.027 35.0932 153.139 34.8739 153.325 34.6912C153.549 34.5084 153.81 34.4353 154.145 34.4353C154.443 34.4353 154.704 34.5084 154.891 34.6546C155.077 34.8008 155.189 35.0201 155.189 35.276C155.189 35.4587 155.114 35.6415 155.002 35.7877C154.891 35.9339 154.667 36.0801 154.406 36.2628L155.263 37.0669C155.375 36.8842 155.412 36.6649 155.487 36.409L156.046 36.5918C155.972 36.9207 155.86 37.2131 155.711 37.469L156.195 37.9441L155.785 38.3827ZM154.891 37.5421L153.847 36.5552C153.623 36.6649 153.474 36.7745 153.362 36.9207C153.288 37.0304 153.213 37.14 153.213 37.2862C153.213 37.4324 153.288 37.5786 153.437 37.6883C153.586 37.7979 153.772 37.8345 153.996 37.8345C154.331 37.8345 154.63 37.7248 154.891 37.5421ZM153.772 35.0567C153.698 35.1298 153.623 35.2394 153.623 35.3491C153.623 35.4222 153.66 35.5318 153.698 35.6049C153.735 35.678 153.847 35.7877 153.996 35.9339C154.22 35.8242 154.369 35.7146 154.481 35.6049C154.555 35.5318 154.63 35.4222 154.63 35.3125C154.63 35.2029 154.592 35.0932 154.518 35.0567C154.443 34.9836 154.331 34.947 154.182 34.947C153.996 34.947 153.884 34.9836 153.772 35.0567Z" fill="white"/>
<path d="M159.028 35.0933H157.724V34.4719H161.041V35.0933H159.737V38.3097H158.991V35.0933H159.028Z" fill="white"/>
<path d="M163.129 35.3857V36.0436C163.054 36.0436 163.017 36.0436 162.98 36.0436C162.719 36.0436 162.495 36.1167 162.346 36.2629C162.197 36.4092 162.122 36.6285 162.122 36.9209V38.3463H161.414V35.4223H162.085V35.8243C162.271 35.5319 162.607 35.3857 163.129 35.3857Z" fill="white"/>
<path d="M165.776 35.6781C165.999 35.8974 166.111 36.1898 166.111 36.6284V38.3463H165.44V37.9808C165.365 38.0904 165.216 38.2001 165.067 38.2732C164.918 38.3463 164.732 38.3828 164.508 38.3828C164.284 38.3828 164.098 38.3463 163.912 38.2732C163.725 38.2001 163.613 38.0904 163.539 37.9442C163.464 37.798 163.39 37.6518 163.39 37.5056C163.39 37.2497 163.502 37.0304 163.688 36.8842C163.874 36.738 164.21 36.6284 164.62 36.6284H165.403V36.5918C165.403 36.3725 165.328 36.2263 165.216 36.1167C165.105 36.007 164.918 35.9339 164.657 35.9339C164.471 35.9339 164.322 35.9705 164.173 36.007C164.023 36.0436 163.874 36.1167 163.763 36.2263L163.502 35.7146C163.651 35.605 163.837 35.4953 164.061 35.4588C164.284 35.4222 164.508 35.3491 164.769 35.3491C165.216 35.3857 165.552 35.4953 165.776 35.6781ZM165.142 37.7615C165.291 37.6883 165.365 37.5787 165.44 37.4325V37.1035H164.732C164.322 37.1035 164.135 37.2497 164.135 37.5056C164.135 37.6152 164.173 37.7249 164.284 37.798C164.396 37.8711 164.508 37.9076 164.694 37.9076C164.881 37.8711 165.03 37.8346 165.142 37.7615Z" fill="white"/>
<path d="M169.913 34.2893V38.3464H169.242V37.9809C169.13 38.1271 168.981 38.2368 168.832 38.3099C168.646 38.383 168.459 38.4195 168.273 38.4195C167.975 38.4195 167.714 38.3464 167.49 38.2367C167.267 38.1271 167.08 37.9443 166.968 37.725C166.857 37.5057 166.782 37.2499 166.782 36.9209C166.782 36.6285 166.857 36.3727 166.968 36.1534C167.117 35.9341 167.267 35.7513 167.49 35.6417C167.714 35.532 167.975 35.4589 168.273 35.4589C168.459 35.4589 168.646 35.4955 168.832 35.5686C168.981 35.6417 169.13 35.7513 169.242 35.861V34.3624H169.913V34.2893ZM168.795 37.6885C168.944 37.6154 169.019 37.5057 169.13 37.3595C169.242 37.2133 169.242 37.0671 169.242 36.8844C169.242 36.7016 169.205 36.5554 169.13 36.4092C169.056 36.263 168.944 36.1534 168.795 36.0803C168.646 36.0072 168.497 35.9706 168.348 35.9706C168.199 35.9706 168.012 36.0072 167.9 36.0803C167.788 36.1534 167.677 36.263 167.565 36.4092C167.453 36.5554 167.453 36.7016 167.453 36.8844C167.453 37.0671 167.49 37.2133 167.565 37.3595C167.639 37.5057 167.751 37.6154 167.9 37.6885C168.049 37.7616 168.199 37.7981 168.348 37.7981C168.497 37.7981 168.683 37.7616 168.795 37.6885Z" fill="white"/>
<path d="M173.604 37.1036H171.255C171.293 37.3229 171.404 37.5057 171.591 37.6153C171.777 37.725 171.964 37.7981 172.224 37.7981C172.56 37.7981 172.821 37.6884 173.045 37.4691L173.417 37.9077C173.268 38.0539 173.119 38.2001 172.895 38.2732C172.672 38.3463 172.448 38.3829 172.187 38.3829C171.852 38.3829 171.553 38.3098 171.33 38.2001C171.106 38.0905 170.882 37.9077 170.733 37.6519C170.584 37.396 170.547 37.1767 170.547 36.8843C170.547 36.5919 170.622 36.3361 170.733 36.1168C170.882 35.8974 171.032 35.7147 171.293 35.5685C171.516 35.4588 171.777 35.3857 172.075 35.3857C172.374 35.3857 172.635 35.4588 172.858 35.5685C173.082 35.6781 173.268 35.8609 173.38 36.1168C173.492 36.3361 173.566 36.5919 173.566 36.9209C173.604 36.9574 173.604 36.994 173.604 37.1036ZM171.516 36.1168C171.367 36.263 171.255 36.4092 171.218 36.6285H172.895C172.858 36.4092 172.784 36.263 172.635 36.1168C172.485 35.9705 172.299 35.934 172.075 35.934C171.852 35.934 171.665 36.0071 171.516 36.1168Z" fill="white"/>
<path d="M177.481 38.1635C177.406 38.2366 177.294 38.2732 177.182 38.3097C177.071 38.3463 176.959 38.3463 176.81 38.3463C176.474 38.3463 176.213 38.2732 176.064 38.0904C175.878 37.9077 175.803 37.6884 175.803 37.3594V35.9339H175.318V35.3857H175.803V34.7278H176.511V35.3857H177.294V35.9339H176.511V37.3229C176.511 37.4691 176.549 37.5787 176.623 37.6518C176.698 37.7249 176.81 37.7615 176.921 37.7615C177.071 37.7615 177.22 37.7249 177.294 37.6518L177.481 38.1635Z" fill="white"/>
<path d="M180.612 35.7148C180.836 35.9341 180.947 36.263 180.947 36.6651V38.3464H180.239V36.7747C180.239 36.5189 180.165 36.3361 180.053 36.1899C179.941 36.0437 179.754 36.0072 179.531 36.0072C179.27 36.0072 179.083 36.0803 178.934 36.2265C178.785 36.3727 178.711 36.592 178.711 36.8844V38.3464H178.002V34.2893H178.711V35.7513C178.823 35.6417 178.972 35.532 179.121 35.4589C179.307 35.3858 179.494 35.3493 179.68 35.3493C180.09 35.3858 180.388 35.4955 180.612 35.7148Z" fill="white"/>
<path d="M183.929 35.6781C184.153 35.8974 184.265 36.1898 184.265 36.6284V38.3463H183.594V37.9808C183.519 38.0904 183.37 38.2001 183.221 38.2732C183.072 38.3463 182.886 38.3828 182.662 38.3828C182.438 38.3828 182.252 38.3463 182.066 38.2732C181.879 38.2001 181.767 38.0904 181.693 37.9442C181.618 37.798 181.544 37.6518 181.544 37.5056C181.544 37.2497 181.656 37.0304 181.842 36.8842C182.028 36.738 182.364 36.6284 182.774 36.6284H183.557V36.5918C183.557 36.3725 183.482 36.2263 183.37 36.1167C183.258 36.007 183.072 35.9339 182.811 35.9339C182.625 35.9339 182.476 35.9705 182.327 36.007C182.177 36.0436 182.028 36.1167 181.916 36.2263L181.656 35.7146C181.805 35.605 181.991 35.4953 182.215 35.4588C182.438 35.4222 182.662 35.3491 182.923 35.3491C183.37 35.3857 183.706 35.4953 183.929 35.6781ZM183.296 37.7615C183.445 37.6883 183.519 37.5787 183.594 37.4325V37.1035H182.886C182.476 37.1035 182.289 37.2497 182.289 37.5056C182.289 37.6152 182.327 37.7249 182.438 37.798C182.55 37.8711 182.662 37.9076 182.848 37.9076C182.998 37.8711 183.184 37.8346 183.296 37.7615Z" fill="white"/>
<path d="M186.912 38.1635C186.837 38.2366 186.725 38.2732 186.613 38.3097C186.502 38.3463 186.39 38.3463 186.241 38.3463C185.905 38.3463 185.644 38.2732 185.495 38.0904C185.309 37.9077 185.234 37.6884 185.234 37.3594V35.9339H184.75V35.3857H185.234V34.7278H185.942V35.3857H186.725V35.9339H185.942V37.3229C185.942 37.4691 185.98 37.5787 186.054 37.6518C186.129 37.7249 186.241 37.7615 186.353 37.7615C186.502 37.7615 186.651 37.7249 186.725 37.6518L186.912 38.1635Z" fill="white"/>
<path d="M193.584 35.4224L192.466 38.3464H191.795L191.012 36.3361L190.229 38.3464H189.558L188.477 35.4224H189.148L189.931 37.5788L190.751 35.4224H191.348L192.168 37.5788L192.988 35.4224H193.584Z" fill="white"/>
<path d="M196.082 35.6781C196.306 35.8974 196.417 36.1898 196.417 36.6284V38.3463H195.746V37.9808C195.672 38.0904 195.523 38.2001 195.374 38.2732C195.225 38.3463 195.038 38.3828 194.814 38.3828C194.591 38.3828 194.404 38.3463 194.218 38.2732C194.032 38.2001 193.92 38.0904 193.845 37.9442C193.771 37.798 193.696 37.6518 193.696 37.5056C193.696 37.2497 193.808 37.0304 193.994 36.8842C194.181 36.738 194.516 36.6284 194.926 36.6284H195.709V36.5918C195.709 36.3725 195.635 36.2263 195.523 36.1167C195.411 36.007 195.225 35.9339 194.964 35.9339C194.777 35.9339 194.628 35.9705 194.479 36.007C194.33 36.0436 194.181 36.1167 194.069 36.2263L193.808 35.7146C193.957 35.605 194.144 35.4953 194.367 35.4588C194.591 35.4222 194.814 35.3491 195.075 35.3491C195.485 35.3857 195.821 35.4953 196.082 35.6781ZM195.448 37.7615C195.597 37.6883 195.672 37.5787 195.746 37.4325V37.1035H195.038C194.628 37.1035 194.442 37.2497 194.442 37.5056C194.442 37.6152 194.479 37.7249 194.591 37.798C194.703 37.8711 194.814 37.9076 195.001 37.9076C195.15 37.8711 195.299 37.8346 195.448 37.7615Z" fill="white"/>
<path d="M199.996 35.4224L198.579 38.6022C198.43 38.9312 198.281 39.1505 198.095 39.2602C197.908 39.4064 197.685 39.4429 197.424 39.4429C197.275 39.4429 197.126 39.4064 196.977 39.3698C196.827 39.3333 196.716 39.2602 196.604 39.1871L196.902 38.6753C196.977 38.7485 197.051 38.785 197.126 38.8215C197.2 38.8581 197.312 38.8947 197.387 38.8947C197.498 38.8947 197.61 38.8581 197.685 38.785C197.759 38.7119 197.834 38.6022 197.908 38.456L197.946 38.3464L196.641 35.4224H197.387L198.318 37.5788L199.25 35.4224H199.996Z" fill="white"/>
<path d="M41.4277 26.7988C43.8405 16.7783 37.5129 6.73693 27.2946 4.3708C17.0763 2.00467 6.83681 8.20978 4.42398 18.2303C2.01116 28.2508 8.33873 38.2921 18.557 40.6583C28.7753 43.0244 39.0148 36.8193 41.4277 26.7988Z" fill="#4399EB"/>
<path d="M22.9296 5.11798C32.6962 5.11798 40.6362 12.9043 40.6362 22.4819C40.6362 32.0595 32.6962 39.8458 22.9296 39.8458C13.163 39.8458 5.22292 32.096 5.22292 22.4819C5.22292 12.8678 13.163 5.11798 22.9296 5.11798ZM22.9296 2.55908C11.7091 2.55908 2.61353 11.4787 2.61353 22.4819C2.61353 33.4852 11.7091 42.4047 22.9296 42.4047C34.15 42.4047 43.2456 33.4852 43.2456 22.4819C43.2829 11.4787 34.1873 2.55908 22.9296 2.55908Z" fill="white"/>
<path d="M29.3039 7.96924L25.0916 13.3429H27.2537V24.7117L18.6799 13.1601H14.5794V31.4745H12.4174L16.6297 36.8848L20.842 31.4745H18.6799V19.8864L27.2537 31.6938H31.3541V13.3429H33.5162L29.3039 7.96924Z" fill="white"/>
</g>
<defs>
<clipPath id="clip0_1_358">
<rect width="200" height="45" fill="white"/>
</clipPath>
</defs>
</svg>
