<svg width="36" height="36" viewBox="0 0 36 36" fill="none" xmlns="http://www.w3.org/2000/svg">
<rect width="36" height="36" rx="18" fill="#2AA1D4"/>
<path d="M16.0159 25.0381C15.5378 25.0381 15.6236 24.8187 15.452 24.2777L14.0544 18.7791L22.7337 12.3154L23.7512 12.6372L22.9053 15.3864L16.0159 25.0381Z" fill="#C8DAEA"/>
<path d="M16.0159 25.038C16.3836 25.038 16.543 24.8332 16.7514 24.5993C17.0701 24.2337 21.1646 19.4809 21.1646 19.4809L18.6515 18.7498L16.3223 20.5046L16.0159 24.8917V25.038Z" fill="#A9C9DD"/>
<path d="M16.261 20.5631L22.1943 25.7838C22.8686 26.2225 23.3589 26.0031 23.5306 25.038L25.9456 11.4671C26.1907 10.2826 25.5655 9.75615 24.9158 10.1071L10.7446 16.6293C9.7761 17.0973 9.78836 17.7407 10.5729 18.0186L14.2138 19.3786L22.6357 13.0465C23.0279 12.754 23.3957 12.9149 23.1015 13.2366L16.261 20.5631Z" fill="url(#paint0_linear_1_340)"/>
<defs>
<linearGradient id="paint0_linear_1_340" x1="19.815" y1="17.544" x2="23.713" y2="22.7723" gradientUnits="userSpaceOnUse">
<stop stop-color="#EFF7FC"/>
<stop offset="1" stop-color="white"/>
</linearGradient>
</defs>
</svg>
