<svg width="36" height="36" viewBox="0 0 36 36" fill="none" xmlns="http://www.w3.org/2000/svg">
<rect width="36" height="36" rx="18" fill="#DC1716"/>
<g clip-path="url(#clip0_1_325)">
<path d="M20.658 17.8252C19.191 16.9881 16.3505 15.415 16.3505 15.415L20.1376 18.133C20.1376 18.133 19.4478 18.5416 20.658 17.8252Z" fill="#E8E0E0"/>
<path d="M16.7888 23.4875L16.79 23.4875C19.0261 23.5239 21.001 23.4854 23.3264 23.3076L23.3505 23.3057L23.3743 23.3016C23.8449 23.2195 24.2786 22.9936 24.6178 22.6555L24.6179 22.6555L24.6212 22.6521C24.8485 22.4213 24.9801 22.2035 25.1143 21.8594C25.3335 21.3079 25.401 20.7799 25.4826 19.5102L25.4828 19.5064C25.5057 19.1024 25.5057 16.8965 25.4828 16.4925L25.4829 16.4925L25.4826 16.4883C25.4776 16.4122 25.4731 16.3316 25.4684 16.2473C25.4263 15.497 25.3676 14.4489 24.8263 13.583L24.8154 13.5654L24.803 13.5489C24.4805 13.1168 23.9553 12.8038 23.4048 12.6986C23.0835 12.6368 22.3173 12.5891 21.3751 12.5554C20.4125 12.521 19.2174 12.5 18.0052 12.5C16.7903 12.5 15.5951 12.521 14.6331 12.5554C13.6917 12.5891 12.927 12.6367 12.6059 12.6986C12.1582 12.7839 11.7607 12.9912 11.4259 13.3041L11.4259 13.3041L11.4242 13.3056C11.0383 13.6695 10.8537 14.1423 10.7507 14.582C10.6678 14.936 10.6288 15.3153 10.5954 15.6398C10.588 15.7116 10.5809 15.7808 10.5737 15.8464L10.5727 15.8554L10.572 15.8644C10.4659 17.2973 10.4868 18.5767 10.5714 20.1246L10.5712 20.1246L10.5722 20.1375C10.6273 20.8214 10.6685 21.1441 10.7824 21.5312C10.9085 21.971 11.0866 22.3489 11.3538 22.622C11.6733 22.9534 12.0961 23.1694 12.5599 23.265C13.1775 23.3943 14.1474 23.4381 16.7888 23.4875ZM19.2791 17.854C18.9744 18.0148 18.6525 18.181 18.3191 18.353L18.2968 18.3645C17.8961 18.5713 17.48 18.7861 17.0623 19.0076V16.6724C17.1617 16.7252 17.2609 16.778 17.3601 16.8307C17.9982 17.1696 18.6338 17.5073 19.2791 17.854Z" fill="#CD201F" stroke="white"/>
<path d="M21.1923 18.0085C19.3786 16.9636 17.6419 16.003 15.8667 15V21C17.7348 19.9052 19.7037 18.9027 21.2 18.0085H21.1923Z" fill="white"/>
</g>
<defs>
<clipPath id="clip0_1_325">
<rect width="16" height="12" fill="white" transform="translate(10 12)"/>
</clipPath>
</defs>
</svg>
